<?xml version="1.0" encoding="UTF-8" standalone="no"?>
<svg
   xmlns:dc="http://purl.org/dc/elements/1.1/"
   xmlns:cc="http://creativecommons.org/ns#"
   xmlns:rdf="http://www.w3.org/1999/02/22-rdf-syntax-ns#"
   xmlns:svg="http://www.w3.org/2000/svg"
   xmlns="http://www.w3.org/2000/svg"
   viewBox="0 0 936.71997 365.50668"
   height="365.50668"
   width="936.71997"
   xml:space="preserve"
   id="svg2"
   version="1.1"><metadata
     id="metadata8"><rdf:RDF><cc:Work
         rdf:about=""><dc:format>image/svg+xml</dc:format><dc:type
           rdf:resource="http://purl.org/dc/dcmitype/StillImage" /></cc:Work></rdf:RDF></metadata><defs
     id="defs6" /><g
     transform="matrix(1.3333333,0,0,-1.3333333,0,365.50667)"
     id="g10"><g
       transform="scale(0.1)"
       id="g12"><path
         id="path14"
         style="fill:#ffffff;fill-opacity:1;fill-rule:nonzero;stroke:none"
         d="m 561.094,1357.26 c 63.621,-54.33 159.109,-81.42 286.465,-81.42 123.586,0 219.071,26.18 286.461,78.61 67.41,56.17 101.11,134.82 101.11,235.92 0,46.77 -9.15,89.92 -30.89,129.19 -19.9,35.95 -53.66,69.88 -94.55,90.32 -25.88,12.94 -41.68,18.6 -73.56,28.38 -34.43,10.56 -205.735,57.31 -223.056,61.87 -95.449,23.26 -156.062,55.07 -156.492,111.51 4.938,109.22 106.727,117.96 162.898,117.96 58.004,0 103.918,-12.2 137.614,-36.51 60.476,-47.07 53.726,-106.84 53.726,-106.84 h 190.61 c -3.76,93.62 -37.48,169.55 -101.1,227.6 -61.78,52.4 -149.814,78.64 -264.01,78.64 -121.715,0 -214.39,-25.28 -278.039,-75.82 -63.664,-52.45 -95.465,-124.56 -95.465,-216.26 0.297,-117.86 56.153,-187.34 106.707,-219.07 30.758,-18.4 100.594,-46.61 190.973,-64.59 l 75.945,-16.54 c 131.668,-32.08 207.269,-72.75 204.899,-137.92 -1.42,-39.3 -14.96,-69.34 -44.93,-89.88 -27.437,-18.77 -73.988,-30.88 -131.996,-30.88 -65.559,0 -117.027,13.07 -154.469,39.31 -35.59,22.47 -57.132,61.78 -64.582,117.96 H 448.77 c 5.597,-106.72 43.039,-187.24 112.324,-241.54" /><path
         id="path16"
         style="fill:#ffffff;fill-opacity:1;fill-rule:nonzero;stroke:none"
         d="m 1788.98,1661.44 c 0,73.39 -13.45,228.63 -163.69,228.63 -142.66,0 -158.07,-151.49 -158.07,-228.63 0,-195.34 111.03,-220.16 163.71,-220.16 136.42,0 158.05,144.7 158.05,220.16 z m -321.76,-553.22 c 0,-50.25 -39.08,-95.98 -95.97,-95.98 h -95.96 v 702.84 c 11.17,186.95 79.15,336 363.17,346.17 122.85,-1.55 211.97,-50.43 264.67,-111.99 56.47,-73.38 80.64,-164.6 80.64,-279.35 0,-118.54 -28.23,-214.52 -84.7,-287.91 -56.43,-71.52 -128.89,-107.24 -217.33,-107.24 -132.67,0 -197.12,55.22 -214.6,65.56 0,-6.4 0.08,-232.1 0.08,-232.1" /><path
         id="path18"
         style="fill:#ffffff;fill-opacity:1;fill-rule:nonzero;stroke:none"
         d="m 2379.53,1443.38 c -48.64,2.45 -141.29,11.98 -149.78,174.12 l 486.66,-0.09 c 0.08,4.94 0,58.32 0.12,58.41 -3.36,122.15 -32.65,213.2 -89.86,281.52 -61.8,67.41 -148.86,101.1 -261.21,101.1 -106.68,0 -190.02,-34.66 -249.91,-103.9 -58.07,-67.41 -87.08,-161.05 -87.08,-280.85 0,-125.46 29.92,-221.88 89.86,-289.27 59.93,-69.29 143.26,-103.92 249.94,-103.92 88.02,0 161.01,21.52 219.08,64.6 58.01,41.15 97.64,101.29 118.24,179.94 L 2536.45,1525 c -24.9,-70.53 -88.47,-85.06 -156.92,-81.62 z m -8.43,452.18 c 120.69,1.63 139.45,-101.1 143.21,-151.66 h -286.44 c 0,0 -2.4,148.97 143.23,151.66" /><path
         id="path20"
         style="fill:#ffffff;fill-opacity:1;fill-rule:nonzero;stroke:none"
         d="m 3253.11,1524.79 h 184.61 c 0,0 -50.11,-244.28 -328.97,-244.28 -278.85,0 -347.52,223.8 -347.52,370.82 0,147.04 26.12,398.24 336.66,407.05 286.93,4.28 334.21,-244.34 334.21,-244.34 h -196.55 c 0,0 -19.08,84.06 -136.07,81.42 -117,-2.64 -147.58,-112.54 -147.58,-216.97 0,-104.45 25.97,-235.1 155.88,-235.1 123.55,-3.77 134.43,63.01 145.33,81.4" /><path
         id="path22"
         style="fill:#ffffff;fill-opacity:1;fill-rule:nonzero;stroke:none"
         d="m 3675.98,1841.94 115.45,-0.01 -0.09,196.86 h -115.13 v 126.39 c 0,34.68 -19.28,95.49 -92.68,95.49 h -101.11 v -825.71 c 0,-86.12 33.42,-137.59 105.73,-137.59 0.83,0 84.8,-0.09 87.87,-0.1 l -0.04,544.67" /><path
         id="path24"
         style="fill:#ffffff;fill-opacity:1;fill-rule:nonzero;stroke:none"
         d="m 3997.16,1295.91 v 384.76 c 0,56.15 13.07,97.32 39.31,123.56 26.2,26.21 66.43,39.32 120.76,39.32 h 64.6 v 199.41 c 0,0 -101.73,2.49 -175.52,-19.67 -47.43,-14.23 -89.45,-33.7 -124.99,-61.77 -37.49,-29.97 -66.97,-69.78 -88.47,-119.38 -21.54,-49.61 -32.29,-110.91 -32.29,-183.95 v -362.28 h 196.6" /><path
         id="path26"
         style="fill:#ffffff;fill-opacity:1;fill-rule:nonzero;stroke:none"
         d="m 4277.43,2041.77 h 196.59 v -477.45 c 0,0 -7.11,-129.11 129.21,-129.19 128.54,-0.07 131.82,115.53 131.91,123.7 v 390.3 c 0,0 6.64,92.64 91.89,92.64 8.47,0 101.98,0 101.98,0 0,0 -0.11,-439.21 -0.03,-443.43 -1.36,-24.17 25.76,-317.83 -325.75,-316.67 -348.26,0 -323.57,297.13 -325.8,314.63 v 445.47" /><path
         id="path28"
         style="fill:#ffffff;fill-opacity:1;fill-rule:nonzero;stroke:none"
         d="m 5638.84,1293.51 h -194.72 v 479.83 c 0,55.31 -22.77,129.83 -132.69,129.83 -107.84,0 -129.8,-84.67 -129.8,-129.83 v -479.83 h -197.6 v 440.31 c 0,127.94 37.91,206.09 100.21,256.86 61.67,50.25 140.62,66.76 221.55,70.56 43.27,0 85.63,-4.72 127.01,-14.11 41.38,-9.44 79.03,-28.23 112.92,-56.45 28.24,24.43 61.6,41.85 100.21,52.21 38.55,10.32 78.48,18.14 119.95,18.35 241,1.28 337.72,-109.07 345.72,-144.49 0,-0.51 0.09,-623.24 0.09,-623.24 h -111.54 c -28.23,0 -95.98,19.18 -95.98,95.95 v 383.88 c 0.53,54.41 -18.54,129.83 -132.65,129.83 -112.94,0 -132.68,-84.67 -132.68,-129.83 v -479.83" /><path
         id="path30"
         style="fill:#ffffff;fill-opacity:1;fill-rule:nonzero;stroke:none"
         d="m 6166.41,1917.11 v -622.69 l 410.22,311.26 -410.22,311.43" /><path
         id="path32"
         style="fill:#ffffff;fill-opacity:1;fill-rule:nonzero;stroke:none"
         d="m 3582.43,752.219 h 164.01 c 63.19,0 97.6,31.203 97.6,91.203 0,72.808 -47.21,87.207 -99.2,87.207 h -162.41 z m -100.01,260.011 h 272.81 c 124.8,0 188.81,-57.601 188.81,-154.402 0,-109.598 -76,-137.609 -94.41,-143.996 v -1.613 c 34.41,-4.789 84.81,-30.399 84.81,-120.797 0,-66.391 9.6,-127.203 31.2,-150.402 h -107.21 c -15.2,24.8 -15.2,56 -15.2,84.011 0,104.789 -21.6,151.199 -113.6,151.199 h -147.2 V 441.02 h -100.01 v 571.21" /><path
         id="path34"
         style="fill:#ffffff;fill-opacity:1;fill-rule:nonzero;stroke:none"
         d="m 4047.96,1012.23 h 411.21 V 925.832 H 4147.96 V 776.23 h 288.01 V 694.629 H 4147.96 V 527.422 h 316.82 V 441.02 h -416.82 v 571.21" /><path
         id="path36"
         style="fill:#ffffff;fill-opacity:1;fill-rule:nonzero;stroke:none"
         d="m 4686.98,668.23 h 174.4 l -85.6,245.602 h -2.4 z m 37.78,344 h 106.41 l 220,-571.21 h -107.21 l -53.6,151.199 h -228 l -53.6,-151.199 h -103.2 l 219.2,571.21" /><path
         id="path38"
         style="fill:#ffffff;fill-opacity:1;fill-rule:nonzero;stroke:none"
         d="m 5468.58,830.629 c -16.8,65.601 -59.2,113.609 -142.4,113.609 -122.4,0 -173.61,-108.008 -173.61,-217.609 0,-109.598 51.21,-217.609 173.61,-217.609 88.79,0 137.6,66.41 145.6,149.609 h 97.6 c -8,-136.809 -104.8,-231.207 -243.2,-231.207 -171.21,0 -273.61,136 -273.61,299.207 0,163.199 102.4,299.211 273.61,299.211 128.79,-0.8 230.4,-72.008 242.4,-195.211 h -100" /><path
         id="path40"
         style="fill:#ffffff;fill-opacity:1;fill-rule:nonzero;stroke:none"
         d="m 5651.7,1012.23 h 100 V 785.031 h 260.01 v 227.199 h 100.01 V 441.02 H 6011.71 V 698.629 H 5751.7 V 441.02 h -100 v 571.21" /></g></g></svg>